<?xml version="1.0" standalone="no"?>
<!DOCTYPE svg PUBLIC "-//W3C//DTD SVG 20010904//EN"
 "http://www.w3.org/TR/2001/REC-SVG-20010904/DTD/svg10.dtd">
<svg version="1.0" xmlns="http://www.w3.org/2000/svg"
 width="512.000000pt" height="512.000000pt" viewBox="0 0 512.000000 512.000000"
 preserveAspectRatio="xMidYMid meet">

<g transform="translate(0.000000,512.000000) scale(0.100000,-0.100000)"
fill="#000000" stroke="none">
<path d="M82 4843 c-74 -36 -104 -138 -60 -202 12 -19 36 -44 51 -55 28 -20
41 -21 489 -26 l462 -5 377 -1400 c208 -770 378 -1408 379 -1417 0 -9 -9 -19
-20 -23 -37 -12 -115 -81 -152 -136 -54 -78 -78 -156 -78 -254 0 -97 17 -159
64 -237 l35 -58 -38 -57 c-53 -81 -72 -136 -78 -223 -9 -130 29 -246 112 -338
241 -268 681 -166 780 182 17 59 17 199 0 254 l-7 22 752 0 752 0 -9 -33 c-4
-17 -8 -79 -8 -137 0 -97 3 -110 32 -172 136 -289 510 -359 734 -138 175 173
185 441 23 629 -41 47 -111 96 -184 127 -43 18 -90 19 -1300 24 -1184 5 -1257
6 -1288 23 -100 55 -95 208 8 259 33 17 113 18 1239 18 1190 0 1205 0 1247 20
29 15 48 33 63 63 24 47 661 2450 661 2493 0 44 -39 102 -85 124 -41 20 -62
20 -1817 20 l-1777 0 -16 58 c-123 429 -158 539 -178 560 -49 53 -37 52 -604
52 -466 0 -532 -2 -561 -17z m4688 -960 c0 -5 -124 -482 -277 -1060 l-278
-1053 -1065 0 -1065 0 -278 1048 c-152 576 -277 1053 -277 1060 0 9 365 12
1620 12 891 0 1620 -3 1620 -7z m-2734 -3029 c100 -47 112 -201 22 -266 -72
-51 -179 -28 -224 47 -78 134 62 285 202 219z m2374 -5 c21 -12 47 -38 59 -59
74 -133 -74 -283 -209 -211 -53 27 -80 74 -80 135 0 121 124 194 230 135z"/>
</g>
</svg>
