<?xml version="1.0" standalone="no"?>
<!DOCTYPE svg PUBLIC "-//W3C//DTD SVG 20010904//EN"
 "http://www.w3.org/TR/2001/REC-SVG-20010904/DTD/svg10.dtd">
<svg version="1.0" xmlns="http://www.w3.org/2000/svg"
 width="24.000000pt" height="24.000000pt" viewBox="0 0 24.000000 24.000000"
 preserveAspectRatio="xMidYMid meet">

<g transform="translate(0.000000,24.000000) scale(0.100000,-0.100000)"
fill="#000000" stroke="none">
<path d="M44 207 c-2 -7 -4 -52 -2 -98 l3 -84 75 0 75 0 0 95 0 95 -73 3 c-54
2 -74 -1 -78 -11z m101 -57 c0 -18 -6 -26 -23 -28 -13 -2 -25 3 -28 12 -10 26
4 48 28 44 17 -2 23 -10 23 -28z m6 -60 c33 -18 21 -30 -31 -30 -51 0 -64 11
-32 29 22 13 39 13 63 1z"/>
</g>
</svg>
