<?xml version="1.0" standalone="no"?>
<!DOCTYPE svg PUBLIC "-//W3C//DTD SVG 20010904//EN"
 "http://www.w3.org/TR/2001/REC-SVG-20010904/DTD/svg10.dtd">
<svg version="1.0" xmlns="http://www.w3.org/2000/svg"
 width="512.000000pt" height="512.000000pt" viewBox="0 0 512.000000 512.000000"
 preserveAspectRatio="xMidYMid meet">

<g transform="translate(0.000000,512.000000) scale(0.100000,-0.100000)"
fill="#000000" stroke="none">
<path d="M2992 5101 c-28 -10 -62 -27 -74 -37 -12 -10 -662 -630 -1445 -1377
-991 -946 -1430 -1371 -1445 -1400 -33 -62 -32 -167 2 -224 14 -23 439 -486
944 -1028 724 -776 929 -990 964 -1007 87 -42 178 -34 253 21 19 14 672 651
1450 1414 1161 1141 1419 1398 1444 1445 l30 56 3 980 c2 886 1 985 -14 1024
-23 61 -60 101 -119 128 l-50 24 -945 0 c-886 -1 -948 -2 -998 -19z m1592
-353 c55 -16 148 -109 164 -164 50 -172 -90 -349 -262 -331 -165 17 -277 186
-221 333 50 131 188 201 319 162z m-972 -985 l178 -178 -102 -102 -101 -102
20 -63 c57 -171 58 -347 4 -508 -32 -94 -92 -202 -151 -270 l-30 -35 -179 179
-179 179 28 39 c34 47 55 126 46 180 -20 122 -131 218 -256 218 -132 0 -249
-115 -250 -245 0 -80 16 -117 85 -198 155 -182 214 -330 215 -538 0 -221 -91
-414 -263 -559 -214 -181 -508 -236 -768 -146 l-67 23 -111 -98 c-60 -55 -114
-99 -118 -99 -5 0 -87 79 -183 175 l-175 175 102 102 102 103 -29 86 c-57 166
-58 340 -4 502 27 81 99 200 153 251 l31 30 36 -35 c20 -19 101 -98 180 -176
l144 -143 -30 -42 c-113 -161 11 -392 210 -392 66 0 117 21 168 68 57 52 85
114 85 186 0 71 -26 126 -102 213 -209 240 -237 595 -69 882 53 90 183 220
273 273 193 113 424 137 644 66 l76 -24 100 100 c55 55 102 100 105 100 3 0
85 -80 182 -177z"/>
</g>
</svg>
