<?xml version="1.0" standalone="no"?>
<!DOCTYPE svg PUBLIC "-//W3C//DTD SVG 20010904//EN"
 "http://www.w3.org/TR/2001/REC-SVG-20010904/DTD/svg10.dtd">
<svg version="1.0" xmlns="http://www.w3.org/2000/svg"
 width="512.000000pt" height="512.000000pt" viewBox="0 0 512.000000 512.000000"
 preserveAspectRatio="xMidYMid meet">

<g transform="translate(0.000000,512.000000) scale(0.100000,-0.100000)"
fill="#000000" stroke="none">
<path d="M1700 5109 c-38 -15 -88 -68 -101 -106 l-11 -33 -206 0 c-114 0 -222
-4 -241 -10 -98 -28 -161 -117 -161 -226 l0 -62 -242 -4 -243 -3 -65 -36 c-43
-23 -78 -52 -102 -85 -73 -96 -68 50 -68 -1845 l0 -1708 26 -20 c33 -26 65
-27 95 -2 l24 19 5 1709 c4 1273 8 1713 17 1728 18 31 65 73 96 84 19 7 205
11 548 11 l519 0 0 -75 0 -74 -481 -3 -481 -3 -34 -37 -34 -38 0 -1955 0
-1955 34 -38 34 -37 1344 -3 c1333 -2 1343 -2 1376 18 63 39 62 27 62 692 l0
604 75 74 75 74 0 -729 c-1 -771 -1 -776 -47 -827 -10 -11 -36 -29 -58 -39
-38 -18 -104 -19 -1472 -19 -988 0 -1440 3 -1460 11 -31 11 -78 53 -96 84 -8
13 -14 100 -17 243 -5 220 -5 224 -29 243 -30 25 -62 24 -95 -2 l-26 -20 0
-223 c0 -251 5 -278 68 -361 27 -36 56 -60 106 -85 l69 -35 1481 0 1481 0 47
22 c70 32 131 94 164 166 l29 62 3 830 3 830 483 485 c413 415 484 491 494
526 15 51 15 88 2 134 -10 34 -9 36 64 110 85 86 106 122 106 180 0 62 -22 99
-109 184 -86 83 -110 96 -177 96 -61 0 -76 -9 -170 -102 -76 -74 -82 -78 -108
-68 -40 15 -111 12 -154 -5 -24 -10 -108 -87 -234 -212 l-197 -197 -3 684 -3
685 -29 62 c-33 72 -94 134 -164 166 -43 20 -66 22 -283 25 l-236 3 -6 69 c-9
108 -49 169 -137 209 -41 19 -65 21 -262 21 -205 0 -218 1 -218 18 0 34 -56
98 -99 116 -35 13 -82 16 -294 15 -141 0 -263 -5 -277 -10z m524 -155 c9 -24
7 -707 -2 -722 -7 -9 -62 -12 -243 -10 l-234 3 -3 360 c-1 198 0 366 3 372 3
10 60 13 239 13 204 0 235 -2 240 -16z m-634 -209 l0 -75 -230 0 -230 0 0 54
c0 47 4 57 26 75 25 20 39 21 230 21 l204 0 0 -75z m1221 56 c22 -18 24 -28
27 -130 5 -160 -14 -151 316 -151 232 0 265 -2 301 -19 22 -10 48 -28 58 -39
46 -51 46 -56 47 -832 l0 -736 -75 -74 -75 -74 0 757 c0 835 2 808 -62 847
-32 19 -49 20 -500 20 l-468 0 0 75 0 75 104 0 c124 0 150 13 150 75 0 62 -26
75 -150 75 l-104 0 0 75 0 75 204 0 c186 0 206 -2 227 -19z m-1212 -614 c13
-39 64 -91 104 -106 17 -7 126 -11 277 -11 287 0 312 5 361 73 16 22 29 48 29
59 0 17 19 18 445 18 l445 0 0 -812 0 -813 -418 -420 -419 -420 -112 -320
c-61 -176 -111 -331 -111 -345 0 -64 79 -129 142 -116 16 3 169 55 341 116
l312 110 133 133 132 132 0 -358 0 -357 -1275 0 -1275 0 0 1735 0 1735 439 0
439 0 11 -33z m3055 -766 c43 -43 57 -64 52 -78 -3 -10 -33 -45 -66 -78 l-60
-60 -72 73 -73 72 65 65 c35 36 71 65 80 65 9 0 42 -26 74 -59z m-252 -249
c124 -123 148 -153 148 -177 0 -26 -60 -89 -440 -470 l-440 -440 -177 178
-178 177 440 440 c381 380 444 440 470 440 24 0 54 -24 177 -148z m-1012
-1017 l175 -175 -50 -50 -50 -50 -177 177 -178 178 47 47 c26 27 50 48 53 48
3 0 84 -79 180 -175z m-40 -380 c0 -5 -89 -99 -197 -207 l-198 -198 -177 177
-178 178 202 202 203 203 172 -172 c95 -95 173 -177 173 -183z m-675 -335 c76
-76 137 -141 135 -143 -3 -3 -37 -16 -76 -30 l-71 -25 -96 96 -96 97 26 73
c14 39 28 72 32 72 3 0 69 -63 146 -140z m-237 -277 c-33 -13 -63 -22 -64 -20
-2 2 6 32 17 66 l21 63 44 -43 44 -43 -62 -23z m822 -638 l0 -75 -1275 0
-1275 0 0 75 0 75 1275 0 1275 0 0 -75z"/>
<path d="M1203 3950 c-30 -12 -43 -41 -43 -97 l0 -49 -46 -13 c-99 -30 -189
-148 -201 -266 -13 -122 47 -217 179 -285 l68 -35 0 -224 0 -223 -37 7 c-21 3
-62 20 -90 36 -67 37 -105 38 -132 3 -24 -31 -27 -61 -7 -89 21 -30 134 -84
204 -97 l62 -12 0 -53 c0 -40 5 -58 20 -73 33 -33 75 -30 108 6 17 19 22 37
22 78 l0 53 42 12 c190 57 300 294 220 475 -39 86 -138 167 -235 191 l-27 7 0
179 0 179 26 -10 c15 -6 39 -19 54 -30 36 -25 91 -26 113 -2 25 27 21 78 -7
107 -29 29 -87 59 -144 74 -40 11 -42 13 -42 51 0 51 -16 85 -47 99 -28 13
-30 13 -60 1z m-47 -568 c-3 -2 -20 5 -39 17 -74 45 -75 146 -4 216 l42 40 3
-134 c1 -73 0 -136 -2 -139z m215 -265 c41 -27 79 -98 79 -147 0 -70 -54 -153
-127 -194 -10 -6 -13 33 -13 178 0 205 0 204 61 163z"/>
<path d="M1789 3651 c-17 -13 -23 -29 -23 -56 0 -27 6 -43 23 -56 22 -18 52
-19 616 -19 564 0 594 1 616 19 32 26 32 86 0 112 -22 18 -52 19 -616 19 -564
0 -594 -1 -616 -19z"/>
<path d="M1789 3351 c-17 -13 -23 -29 -23 -56 0 -27 6 -43 23 -56 22 -18 47
-19 416 -19 369 0 394 1 416 19 32 26 32 86 0 112 -22 18 -47 19 -416 19 -369
0 -394 -1 -416 -19z"/>
<path d="M1789 3051 c-17 -13 -23 -29 -23 -56 0 -27 6 -43 23 -56 22 -18 45
-19 316 -19 271 0 294 1 316 19 32 26 32 86 0 112 -22 18 -45 19 -316 19 -271
0 -294 -1 -316 -19z"/>
<path d="M1789 2751 c-17 -13 -23 -29 -23 -56 0 -27 6 -43 23 -56 21 -17 43
-19 216 -19 173 0 195 2 216 19 32 26 32 86 0 112 -21 17 -43 19 -216 19 -173
0 -195 -2 -216 -19z"/>
<path d="M1129 2222 c-114 -59 -153 -197 -89 -309 38 -66 97 -103 177 -110 50
-4 66 0 113 24 167 86 168 311 1 396 -73 36 -131 36 -202 -1z m140 -132 c10
-5 24 -22 30 -39 10 -24 10 -34 -3 -59 -24 -47 -66 -55 -110 -21 -68 53 7 160
83 119z"/>
<path d="M1636 2229 c-19 -15 -26 -30 -26 -54 0 -24 7 -39 26 -54 26 -20 38
-21 394 -21 356 0 368 1 394 21 36 28 36 80 0 108 -26 20 -38 21 -394 21 -356
0 -368 -1 -394 -21z"/>
<path d="M1636 1929 c-19 -15 -26 -30 -26 -54 0 -24 7 -39 26 -54 25 -19 40
-21 194 -21 154 0 169 2 194 21 36 28 36 80 0 108 -25 19 -40 21 -194 21 -154
0 -169 -2 -194 -21z"/>
<path d="M1129 1472 c-114 -59 -153 -197 -89 -309 38 -66 97 -103 177 -110 50
-4 66 0 113 24 167 86 168 311 1 396 -73 36 -131 36 -202 -1z m140 -132 c10
-5 24 -22 30 -39 10 -24 10 -34 -3 -59 -24 -47 -66 -55 -110 -21 -68 53 7 160
83 119z"/>
<path d="M1636 1479 c-19 -15 -26 -30 -26 -54 0 -24 7 -39 26 -54 25 -19 40
-21 194 -21 154 0 169 2 194 21 36 28 36 80 0 108 -25 19 -40 21 -194 21 -154
0 -169 -2 -194 -21z"/>
<path d="M1636 1179 c-19 -15 -26 -30 -26 -54 0 -24 7 -39 26 -54 25 -19 40
-21 194 -21 154 0 169 2 194 21 36 28 36 80 0 108 -25 19 -40 21 -194 21 -154
0 -169 -2 -194 -21z"/>
</g>
</svg>
