<?xml version="1.0" standalone="no"?>
<!DOCTYPE svg PUBLIC "-//W3C//DTD SVG 20010904//EN"
 "http://www.w3.org/TR/2001/REC-SVG-20010904/DTD/svg10.dtd">
<svg version="1.0" xmlns="http://www.w3.org/2000/svg"
 width="512.000000pt" height="512.000000pt" viewBox="0 0 512.000000 512.000000"
 preserveAspectRatio="xMidYMid meet">

<g transform="translate(0.000000,512.000000) scale(0.100000,-0.100000)"
fill="#000000" stroke="none">
<path d="M1010 5105 c-245 -39 -482 -159 -659 -336 -89 -90 -193 -237 -240
-340 -320 -708 88 -1511 851 -1675 114 -25 352 -25 466 0 477 102 836 461 938
936 25 118 25 354 1 468 -53 241 -150 424 -321 600 -268 277 -655 406 -1036
347z m340 -170 c404 -61 729 -357 837 -760 23 -87 26 -119 26 -250 0 -129 -4
-164 -26 -247 -49 -187 -136 -339 -271 -474 -135 -135 -287 -222 -474 -271
-83 -22 -118 -26 -247 -26 -131 0 -163 3 -250 26 -403 108 -699 433 -760 837
-19 120 -19 202 0 315 91 558 608 935 1165 850z"/>
<path d="M1139 4751 c-16 -16 -29 -39 -29 -50 0 -14 -6 -21 -19 -21 -10 0 -50
-16 -89 -35 -184 -92 -274 -304 -213 -503 39 -129 139 -232 269 -278 l52 -19
0 -247 c0 -162 -4 -248 -10 -248 -19 0 -86 50 -109 81 -29 39 -51 102 -51 146
0 40 -45 93 -79 93 -32 0 -68 -20 -81 -46 -30 -55 10 -209 78 -299 44 -58 146
-131 209 -148 31 -8 43 -16 43 -30 0 -28 54 -77 85 -77 32 0 85 49 85 79 0 13
6 21 18 21 9 0 42 12 72 26 247 115 327 423 166 641 -49 68 -139 133 -210 153
l-46 13 0 248 c0 187 3 249 12 249 7 0 29 -12 49 -26 62 -43 109 -129 109
-201 0 -25 8 -43 29 -64 38 -38 74 -38 112 0 23 24 29 38 29 74 0 104 -67 240
-152 310 -47 39 -142 87 -170 87 -12 0 -18 8 -18 21 0 30 -53 79 -85 79 -16 0
-38 -12 -56 -29z m-29 -486 c0 -129 -2 -235 -5 -235 -16 0 -64 32 -92 62 -87
91 -96 227 -21 329 25 34 85 79 105 79 10 0 13 -52 13 -235z m208 -459 c41
-21 88 -76 111 -126 34 -76 25 -164 -24 -238 -24 -35 -92 -91 -112 -92 -10 0
-13 54 -13 235 0 129 2 235 5 235 4 0 18 -6 33 -14z"/>
<path d="M3860 4941 c-45 -14 -84 -39 -117 -73 -120 -125 -86 -325 69 -402 50
-25 58 -26 230 -26 98 0 178 -3 177 -7 -1 -19 -521 -458 -816 -690 -895 -703
-1915 -1383 -3007 -2004 -159 -90 -303 -178 -321 -195 -50 -49 -70 -99 -69
-179 0 -79 20 -129 75 -183 66 -64 167 -88 253 -59 52 18 520 284 891 507
1238 744 2397 1578 3252 2341 68 60 125 109 128 109 3 0 5 -84 5 -187 1 -131
5 -199 14 -226 75 -209 367 -225 466 -24 l31 63 -3 529 c-3 495 -4 532 -22
565 -26 49 -74 98 -121 123 -39 22 -48 22 -565 24 -289 1 -536 -2 -550 -6z
m1061 -190 l29 -29 0 -497 0 -497 -29 -29 c-37 -37 -78 -38 -115 -4 l-26 24 0
296 0 297 -29 29 c-54 53 -75 44 -231 -101 -845 -782 -2098 -1694 -3414 -2483
-364 -218 -810 -469 -843 -474 -26 -5 -37 0 -63 25 -35 35 -38 69 -10 105 11
13 106 73 212 133 1229 688 2518 1565 3483 2369 224 186 595 515 625 552 22
29 26 79 7 104 -28 36 -51 39 -336 39 -153 0 -287 3 -296 6 -19 8 -45 55 -45
84 0 12 13 35 29 51 l29 29 497 0 497 0 29 -29z"/>
<path d="M4356 3314 c-33 -10 -64 -31 -97 -64 -86 -86 -80 39 -77 -1611 l3
-1454 22 -40 c25 -47 74 -95 123 -121 31 -17 64 -19 258 -22 182 -3 231 -1
270 12 65 22 115 66 146 128 l26 52 0 1472 0 1472 -28 53 c-30 59 -95 111
-160 129 -59 16 -427 12 -486 -6z m463 -169 c16 -8 31 -22 35 -30 3 -9 6 -664
6 -1455 0 -1400 0 -1438 -19 -1461 -19 -24 -22 -24 -225 -27 l-206 -3 -30 30
-30 29 0 1429 c0 1125 3 1433 13 1453 22 44 49 50 245 50 141 0 189 -3 211
-15z"/>
<path d="M3325 2714 c-59 -21 -110 -67 -139 -126 l-26 -52 0 -1171 0 -1171 26
-52 c14 -28 43 -65 64 -82 71 -56 104 -62 352 -58 196 3 228 5 262 22 47 24
98 75 123 124 17 35 18 93 18 1217 0 1152 0 1181 -20 1220 -27 56 -88 111
-142 129 -64 22 -457 22 -518 0z m486 -183 l29 -29 0 -1137 0 -1137 -29 -29
-29 -29 -192 0 c-193 0 -220 4 -247 39 -18 24 -19 2290 0 2313 26 33 52 37
245 38 l194 0 29 -29z"/>
<path d="M2310 2035 c-60 -19 -122 -73 -151 -132 l-24 -48 0 -830 c0 -919 -4
-860 65 -939 18 -20 52 -47 74 -59 39 -21 53 -22 286 -22 233 0 247 1 286 22
22 12 56 39 74 59 69 79 65 20 65 939 l0 830 -24 48 c-30 61 -92 113 -155 132
-68 20 -430 20 -496 0z m459 -170 c16 -8 34 -28 40 -46 8 -22 11 -263 11 -796
0 -816 0 -816 -48 -842 -13 -7 -95 -11 -216 -11 -192 0 -195 0 -223 24 l-28
24 -3 779 c-2 540 0 789 8 815 18 61 38 67 248 68 142 0 189 -3 211 -15z"/>
<path d="M1285 1437 c-84 -33 -141 -92 -165 -173 -8 -28 -10 -191 -8 -559 3
-576 1 -553 70 -624 70 -71 89 -76 336 -79 245 -4 279 2 347 54 20 15 48 48
63 73 l27 46 3 535 c3 604 5 588 -73 665 -67 68 -103 75 -354 74 -140 0 -227
-5 -246 -12z m464 -172 c16 -8 31 -22 35 -30 3 -9 6 -240 6 -513 -1 -375 -4
-501 -13 -513 -27 -35 -54 -39 -247 -39 l-192 0 -29 29 -29 29 0 497 0 497 29
29 29 29 192 0 c148 0 197 -3 219 -15z"/>
<path d="M260 925 c-61 -19 -113 -65 -144 -127 l-26 -52 0 -275 c0 -269 1
-277 24 -327 28 -60 82 -108 148 -130 39 -13 88 -15 270 -12 194 3 227 5 258
22 49 26 98 74 123 121 21 38 22 56 25 298 4 310 -2 344 -76 418 -70 70 -111
79 -356 78 -142 0 -214 -4 -246 -14z m482 -183 c23 -22 23 -26 23 -273 l0
-251 -29 -24 -28 -25 -205 3 c-201 3 -205 3 -224 27 -18 21 -19 42 -19 270 0
183 3 251 13 263 27 35 50 38 249 36 191 -3 198 -4 220 -26z"/>
</g>
</svg>
