<svg version="1.1" id="Layer_1" xmlns="http://www.w3.org/2000/svg" xmlns:xlink="http://www.w3.org/1999/xlink" x="0px" y="0px"
	 width="100%" viewBox="0 0 512 512" enable-background="new 0 0 512 512" xml:space="preserve">
<path fill="#000000" opacity="1.000000" stroke="none" 
	d="
M99.545891,0.999999 
	C119.809898,20.755648 139.636993,40.494091 159.425751,60.270897 
	C190.761429,91.587608 222.048813,122.952713 253.432800,154.220901 
	C256.107239,156.885513 257.391449,159.718796 257.382538,163.474731 
	C257.315338,191.792343 257.361237,220.110214 257.334839,248.427963 
	C257.328979,254.715683 254.619110,257.328583 248.135406,257.333649 
	C220.650528,257.355072 193.164581,257.217499 165.681595,257.446198 
	C160.365417,257.490448 156.540451,255.640991 152.946365,252.040817 
	C110.226326,209.248367 67.436836,166.525238 24.692818,123.756683 
	C16.931515,115.990921 9.292750,108.102699 1.298709,100.135506 
	C1.000000,96.638710 1.000000,93.277428 1.290149,89.296501 
	C3.537058,86.883865 5.561495,85.158821 7.440411,83.287659 
	C34.971668,55.869881 62.483528,28.432625 90.000000,1.000001 
	C93.030594,1.000000 96.061188,1.000000 99.545891,0.999999 
M79.801163,38.300652 
	C61.028801,57.101151 42.256435,75.901657 23.367596,94.818802 
	C25.327528,96.897896 26.656475,98.380569 28.061378,99.787376 
	C73.258774,145.045822 118.477585,190.282928 163.624268,235.591888 
	C165.805115,237.780609 168.004929,238.716919 171.076019,238.701538 
	C191.732147,238.597977 212.390045,238.539307 233.044907,238.731567 
	C237.462952,238.772690 238.773346,237.317276 238.733627,232.979355 
	C238.552124,213.157333 238.503952,193.330444 238.780594,173.510483 
	C238.849701,168.560104 237.233841,165.139267 233.804977,161.726212 
	C188.823456,116.952110 143.959641,72.059769 99.049103,27.214298 
	C97.782974,25.950005 96.693390,24.366312 93.437485,23.809523 
	C89.389305,28.125750 84.848900,32.966789 79.801163,38.300652 
z"/>
<path fill="#000000" opacity="1.000000" stroke="none" 
	d="
M513.000000,283.531738 
	C501.720764,282.586334 490.396484,283.671814 479.097443,283.376221 
	C476.894165,283.318573 476.334900,284.897552 475.758728,286.460754 
	C466.301056,312.119629 456.837280,337.776276 447.419617,363.449829 
	C438.573395,387.565521 429.851318,411.727051 420.923859,435.812561 
	C417.787994,444.272949 415.891144,445.337250 406.830505,445.339417 
	C401.333313,445.340729 395.835846,445.307953 390.339172,445.361847 
	C389.030945,445.374634 387.494202,445.291626 386.464935,445.916016 
	C384.003632,447.409119 385.082916,462.132751 387.788086,463.428619 
	C400.128296,469.340271 403.798981,479.725342 402.218597,492.311279 
	C400.911011,502.725311 393.930359,508.868408 384.290863,512.820557 
	C378.645081,513.000000 373.290131,513.000000 367.256592,512.743896 
	C364.910034,511.409180 363.208984,510.378204 361.579315,509.244598 
	C346.176697,498.530548 346.047791,475.518250 361.679993,465.584290 
	C365.698456,463.030640 367.203857,460.380432 366.686127,455.986420 
	C366.492645,454.344604 366.492706,452.639954 366.694000,450.999481 
	C367.223572,446.684174 365.596680,445.205811 361.125610,445.254486 
	C341.482422,445.468262 321.835388,445.295715 302.190063,445.355927 
	C290.915863,445.390472 292.690552,444.009308 292.249634,455.144379 
	C292.051941,460.136810 293.460022,463.114441 297.881531,466.015228 
	C310.630981,474.379669 312.534241,492.674530 302.780151,504.399261 
	C299.711395,508.088013 295.667450,510.234192 292.000000,513.000000 
	C286.311951,513.000000 280.623932,513.000000 274.467957,513.000000 
	C270.674286,510.615112 266.960876,508.944550 263.857605,506.052063 
	C253.885864,496.757599 252.381989,474.579620 268.463806,465.100830 
	C272.849030,462.516113 273.888885,459.716705 273.728210,455.150208 
	C273.334656,443.965454 275.183929,445.449493 263.823456,445.357086 
	C254.327164,445.279877 244.828629,445.233978 235.333694,445.364899 
	C231.966431,445.411346 230.693436,444.314362 230.593964,440.788696 
	C230.194977,426.646729 230.085022,426.647736 244.198853,426.648132 
	C295.348694,426.649597 346.498779,426.588318 397.648010,426.766083 
	C402.180817,426.781799 404.480682,425.528687 406.025574,421.213074 
	C414.466095,397.634827 423.116425,374.131226 431.776276,350.632111 
	C440.320740,327.446136 448.961823,304.295837 457.564941,281.131531 
	C457.796326,280.508484 458.154419,279.924957 458.326782,279.288666 
	C463.308777,260.895691 467.723236,264.865234 479.600037,264.700226 
	C490.425842,264.549774 501.256348,264.737701 512.542358,264.888245 
	C513.000000,271.021149 513.000000,277.042297 513.000000,283.531738 
M288.866028,483.757843 
	C286.980469,480.160126 283.756348,479.876495 280.336639,480.529419 
	C277.422607,481.085785 275.876343,483.103668 275.396118,486.015289 
	C274.844269,489.361328 276.214447,491.826538 278.874329,493.645844 
	C281.125336,495.185547 283.694824,495.246887 285.872437,493.831085 
	C289.235443,491.644531 290.703491,488.482788 288.866028,483.757843 
M383.462921,485.117523 
	C382.034698,480.891144 378.828827,479.840485 374.834442,480.432922 
	C371.688507,480.899536 369.905060,482.865204 369.412170,485.988556 
	C368.762238,490.106720 371.644196,494.159698 375.525848,494.617798 
	C380.342865,495.186310 383.387207,491.878601 383.462921,485.117523 
z"/>
<path fill="#000000" opacity="1.000000" stroke="none" 
	d="
M513.000000,73.550018 
	C483.906555,103.082047 454.813019,132.164017 425.719788,161.246262 
	C417.709442,169.253586 409.637177,177.200455 401.724579,185.303238 
	C398.983795,188.109909 396.006134,189.422211 392.019012,189.393066 
	C373.031708,189.254379 354.042786,189.350189 335.054504,189.321945 
	C328.040405,189.311523 324.684021,185.997574 324.673584,179.064087 
	C324.644775,159.909256 324.737946,140.753830 324.604797,121.599876 
	C324.578247,117.783531 325.880859,114.903847 328.495239,112.297050 
	C365.524628,75.374710 402.527191,38.425472 439.768127,1.241379 
	C443.030609,1.000000 446.061188,1.000000 449.684082,1.301896 
	C462.501129,12.643250 473.894653,24.532585 485.426697,36.269867 
	C494.727570,45.736237 505.031311,54.253418 513.000000,65.000000 
	C513.000000,67.700012 513.000000,70.400032 513.000000,73.550018 
M478.217834,81.717773 
	C482.348450,77.670380 486.479065,73.622986 489.826569,70.342918 
	C474.328125,54.619476 459.342133,39.415928 444.290344,24.145634 
	C444.293884,24.143669 443.947327,24.248621 443.721283,24.474253 
	C410.955933,57.182461 378.205414,89.905556 345.423157,122.596779 
	C343.880859,124.134781 343.318451,125.821655 343.327454,127.950302 
	C343.380951,140.607910 343.469543,153.267578 343.282806,165.922668 
	C343.226227,169.755875 344.713409,170.754929 348.289032,170.707123 
	C360.112000,170.549042 371.941284,170.503448 383.761932,170.734222 
	C387.751587,170.812119 390.571960,169.580887 393.381042,166.750626 
	C421.419922,138.500229 449.587952,110.378044 478.217834,81.717773 
z"/>
<path fill="#000000" opacity="1.000000" stroke="none" 
	d="
M1.000000,439.458069 
	C7.878690,433.684448 13.561881,427.116455 19.690172,421.024994 
	C44.363934,396.499573 68.986374,371.921753 93.488411,347.225037 
	C97.378616,343.303925 101.394707,341.416656 107.087502,341.523163 
	C125.393852,341.865631 143.710648,341.632080 162.023346,341.663574 
	C169.080566,341.675690 172.331558,344.924866 172.338913,351.941772 
	C172.358826,370.920380 172.260635,389.899628 172.396973,408.877258 
	C172.425430,412.837585 171.222244,415.845337 168.431686,418.625336 
	C137.059937,449.877991 105.755318,481.198029 74.216324,512.750000 
	C71.299988,513.000000 68.599968,513.000000 65.211670,512.769653 
	C61.993385,510.921539 59.792362,508.930115 57.674156,506.802734 
	C38.802284,487.849030 19.896093,468.929565 1.000001,450.000000 
	C1.000000,446.638702 1.000000,443.277435 1.000000,439.458069 
M97.786827,370.287079 
	C73.002884,395.092010 48.218941,419.896942 24.088909,444.047394 
	C39.552696,459.778442 54.330418,474.811554 69.242928,489.981812 
	C70.022171,489.398254 70.890663,488.896942 71.576645,488.212646 
	C98.114143,461.740540 124.631592,435.248352 151.165802,408.772949 
	C152.913330,407.029297 153.710266,405.076782 153.690475,402.540253 
	C153.594360,390.212067 153.536209,377.881195 153.712357,365.554810 
	C153.767288,361.710541 152.586166,360.188873 148.583969,360.285858 
	C139.425919,360.507782 130.200424,361.005341 121.111458,360.183655 
	C111.452904,359.310455 103.860573,361.733032 97.786827,370.287079 
z"/>
<path fill="#000000" opacity="1.000000" stroke="none" 
	d="
M218.496796,329.319763 
	C214.286606,315.294495 210.133301,301.672272 206.087234,288.018250 
	C205.480850,285.971893 205.163620,283.784454 205.085739,281.648651 
	C204.931900,277.429901 209.207840,273.671600 214.116379,273.670288 
	C282.243347,273.652161 350.370331,273.646790 418.497314,273.675140 
	C426.601105,273.678497 430.050995,278.581970 427.590485,286.655640 
	C421.503387,306.629181 415.311005,326.570679 409.158295,346.524231 
	C403.787781,363.941162 398.417664,381.358185 393.035431,398.771515 
	C392.448059,400.671875 391.917999,402.607330 391.124878,404.423218 
	C389.253510,408.707916 386.275787,411.375488 381.223511,411.369904 
	C337.748901,411.321747 294.274200,411.323334 250.799545,411.358032 
	C245.266754,411.362427 242.167145,408.394196 240.659088,403.469696 
	C235.955521,388.110382 231.312378,372.732422 226.700043,357.345398 
	C223.943726,348.150146 221.288940,338.924469 218.496796,329.319763 
M318.499939,392.658478 
	C335.656219,392.659271 352.813293,392.572418 369.968079,392.731812 
	C373.574341,392.765320 375.386963,391.496826 376.433502,388.093231 
	C384.037079,363.364075 391.775909,338.676544 399.431061,313.963226 
	C401.562775,307.081451 403.556854,300.157043 405.742096,292.822632 
	C345.957977,292.822632 286.998810,292.822632 227.362198,292.822632 
	C230.646652,303.898407 233.739990,314.346436 236.843414,324.791473 
	C243.024033,345.593262 249.300629,366.367340 255.314850,387.217102 
	C256.465576,391.206329 258.154480,392.823914 262.534698,392.763397 
	C280.853455,392.510223 299.177673,392.657349 318.499939,392.658478 
z"/>
<path fill="#000000" opacity="1.000000" stroke="none" 
	d="
M189.018372,275.289856 
	C189.218704,280.069794 189.226761,284.393829 189.332565,288.715454 
	C189.393723,291.213409 188.349747,292.465027 185.791153,292.312134 
	C185.460175,292.292328 185.125931,292.318909 184.793518,292.331970 
	C169.950104,292.915527 169.286163,292.204163 170.685120,277.310608 
	C170.825989,275.810883 170.734787,273.879700 172.732391,273.903137 
	C178.117386,273.966309 183.616623,272.434052 189.018372,275.289856 
z"/>
<path fill="#000000" opacity="1.000000" stroke="none" 
	d="
M186.804779,326.245850 
	C182.495636,326.316467 178.663773,326.256073 174.836700,326.364838 
	C171.934830,326.447266 170.567841,325.348145 170.645706,322.289185 
	C171.097183,304.554138 167.582458,308.093506 185.191986,307.648987 
	C188.108963,307.575409 189.487915,308.662323 189.363800,311.720428 
	C189.215332,315.378113 189.341019,319.046234 189.294998,322.709137 
	C189.276199,324.206879 189.307495,325.812805 186.804779,326.245850 
z"/>
<path fill="#000000" opacity="1.000000" stroke="none" 
	d="
M334.346436,247.999054 
	C334.265839,258.490204 335.183289,257.338715 325.533630,257.310516 
	C314.686249,257.278839 315.663879,258.802063 315.673218,247.467239 
	C315.681244,237.687576 314.670227,238.757904 324.524567,238.655930 
	C324.857483,238.652481 325.190521,238.652878 325.523438,238.656052 
	C335.510620,238.751648 334.181610,237.789688 334.346436,247.999054 
z"/>
<path fill="#000000" opacity="1.000000" stroke="none" 
	d="
M333.521820,222.542923 
	C328.568207,223.837936 323.903137,223.139771 319.265411,223.318527 
	C316.723663,223.416489 315.882263,222.152710 315.643860,219.707016 
	C314.235779,205.263123 316.202820,203.308746 330.751587,204.646942 
	C333.249207,204.876694 334.400391,205.764984 334.302063,208.284088 
	C334.121002,212.922119 334.843323,217.588608 333.521820,222.542923 
z"/>
<path fill="#000000" opacity="1.000000" stroke="none" 
	d="
M112.901627,148.444122 
	C96.039116,144.318283 86.831306,127.339500 92.078293,110.120705 
	C92.974907,107.178322 92.492325,105.512810 90.471306,103.609268 
	C87.564240,100.871185 84.941109,97.827888 81.992844,95.138435 
	C79.369156,92.745064 79.585144,90.817146 82.134888,88.579437 
	C84.383049,86.606392 86.501480,84.464241 88.511948,82.246918 
	C91.175453,79.309357 93.695450,78.946663 96.389679,82.144943 
	C102.066574,88.883888 107.755196,94.107811 118.137978,90.955788 
	C125.074371,88.850014 132.122498,92.072075 138.129944,96.546364 
	C140.667053,98.435966 140.748398,100.172340 138.708618,102.270149 
	C135.922943,105.135071 133.022781,107.890656 130.288010,110.802361 
	C128.463333,112.745071 126.804443,111.861282 124.918144,110.984467 
	C118.834595,108.156631 113.794357,109.680977 111.030975,115.069344 
	C108.298943,120.396584 110.045700,125.589134 115.391869,129.024063 
	C117.553772,130.413086 119.462883,130.126404 121.484001,129.209061 
	C126.323303,127.012611 131.195145,124.873138 135.935928,122.477295 
	C147.576111,116.594681 158.713577,117.546242 168.189255,126.298363 
	C176.550018,134.020706 179.455719,144.225281 176.408203,155.421280 
	C175.237350,159.722794 176.169174,162.354660 179.362839,165.323273 
	C188.331055,173.659515 188.202454,173.823959 179.423431,182.591934 
	C177.909592,184.103912 176.651657,185.940094 173.634903,187.221710 
	C170.718216,184.134125 167.511215,180.817886 164.399109,177.414871 
	C162.565628,175.410034 160.968781,174.797592 157.958618,175.758987 
	C147.923477,178.964081 138.350204,177.910706 129.781891,171.096344 
	C127.292458,169.116547 127.334122,167.448135 129.438660,165.392807 
	C130.986740,163.880905 132.574417,162.395264 133.986923,160.761703 
	C137.219360,157.023407 140.268967,154.424698 145.743362,157.692230 
	C150.035538,160.254135 153.797302,157.357147 156.411026,153.886078 
	C159.772446,149.422043 159.346573,145.870682 155.614456,141.237762 
	C152.807770,137.753632 149.520920,137.210526 145.539047,139.175018 
	C140.779907,141.522980 135.911621,143.648895 131.104324,145.900253 
	C125.430206,148.557526 119.530365,149.602325 112.901627,148.444122 
z"/>
<path fill="#000000" opacity="1.000000" stroke="none" 
	d="
M195.722626,213.720352 
	C187.498947,208.390656 185.486298,200.385498 190.371964,193.568649 
	C195.210892,186.817032 203.728745,185.696304 210.027740,190.982498 
	C215.609940,195.667145 216.866531,201.856064 213.455765,207.865997 
	C209.787048,214.330444 203.725555,216.442780 195.722626,213.720352 
z"/>
<path fill="#000000" opacity="1.000000" stroke="none" 
	d="
M423.393127,120.920197 
	C420.011993,131.300507 411.164062,138.102493 401.198395,138.358154 
	C391.253418,138.613297 381.375244,132.671509 377.794464,124.280617 
	C373.464233,114.133560 375.368744,104.049438 383.297577,96.684486 
	C387.725800,100.061180 391.438843,104.274918 395.278412,108.347160 
	C396.489899,109.632141 395.519989,110.872711 394.993805,112.014534 
	C393.663727,114.901093 395.178741,116.845291 397.176453,118.472816 
	C399.151978,120.082283 401.051544,119.600395 402.999908,117.983871 
	C405.359741,116.025940 404.822388,113.948410 403.759552,111.729500 
	C401.328400,106.654022 399.220947,101.498245 397.459808,96.107422 
	C393.984009,85.467911 403.028656,71.432808 415.003876,69.155518 
	C424.680847,67.315292 433.837738,68.820114 440.163208,77.177643 
	C446.454620,85.490227 447.480591,94.776665 442.697845,104.290016 
	C441.617493,106.438889 439.890533,108.262665 437.964386,110.922050 
	C433.680664,106.681168 429.840118,102.845787 425.958008,99.052963 
	C424.516418,97.644554 425.341766,96.315727 425.961639,94.972435 
	C427.353607,91.955772 425.913147,89.747353 423.688202,88.070374 
	C421.653076,86.536491 419.454834,87.432938 417.707703,88.813072 
	C415.428528,90.613503 416.116730,92.957977 417.118652,95.165497 
	C419.512177,100.439209 422.654327,105.361794 423.777802,111.213959 
	C424.393250,114.419907 424.534271,117.442490 423.393127,120.920197 
z"/>
<path fill="#000000" opacity="1.000000" stroke="none" 
	d="
M98.065567,446.385864 
	C83.629036,453.377686 69.344566,448.161743 65.422356,434.457184 
	C63.590885,428.057831 64.142044,421.636108 67.665001,415.723877 
	C69.627350,412.430664 71.953232,411.741577 74.851326,414.661041 
	C77.195930,417.022949 79.524475,419.405975 81.968811,421.661835 
	C83.538498,423.110596 84.741051,424.422913 83.632881,426.793488 
	C83.020775,428.102875 83.562790,429.431061 84.944870,430.170746 
	C85.899620,430.681793 86.870857,430.667297 87.716637,429.912506 
	C89.066833,428.707520 88.279541,427.457581 87.671379,426.302063 
	C84.726509,420.706970 82.215271,415.203094 82.515434,408.452026 
	C83.044182,396.560242 91.183884,388.672150 104.007507,388.661499 
	C116.341934,388.651306 125.176628,397.022552 125.386757,408.708252 
	C125.465965,413.113068 124.996651,417.292847 122.868080,421.231567 
	C120.286346,426.008789 118.441658,426.405060 114.606407,422.728058 
	C112.565773,420.771545 110.664665,418.669983 108.635674,416.700806 
	C106.945930,415.060822 105.119553,413.627899 106.469040,410.784485 
	C106.976280,409.715637 106.455452,408.466919 105.279625,407.797333 
	C104.327438,407.255127 103.327713,407.312775 102.475174,407.974243 
	C101.362244,408.837708 101.491684,409.940674 102.008247,411.117950 
	C102.672134,412.631012 103.081009,414.280212 103.900169,415.697052 
	C110.421059,426.976257 108.554016,437.531555 98.065567,446.385864 
z"/>
<path fill="#000000" opacity="1.000000" stroke="none" 
	d="
M340.999878,334.380066 
	C317.336273,334.378235 294.171295,334.243744 271.010071,334.477844 
	C265.960724,334.528870 264.429291,333.015991 264.544708,327.961945 
	C264.825714,315.654327 264.586670,315.648346 277.029724,315.648529 
	C305.359344,315.648926 333.689972,315.773407 362.017609,315.537048 
	C367.125671,315.494446 368.554474,317.020935 368.449677,322.031464 
	C368.191589,334.369019 368.424469,334.373749 355.998047,334.375854 
	C351.165344,334.376648 346.332611,334.378387 340.999878,334.380066 
z"/>
<path fill="#000000" opacity="1.000000" stroke="none" 
	d="
M316.000061,349.652527 
	C329.329102,349.655701 342.160187,349.790436 354.985931,349.586975 
	C359.115204,349.521454 360.421722,350.899048 360.428802,355.021088 
	C360.451691,368.352661 360.598145,368.355591 347.498810,368.357086 
	C324.839783,368.359680 302.179840,368.252563 279.522491,368.446259 
	C274.955139,368.485291 273.498383,367.084167 273.550903,362.488129 
	C273.697388,349.656006 273.510315,349.653137 286.509827,349.652039 
	C296.173248,349.651184 305.836639,349.652527 316.000061,349.652527 
z"/>
</svg>